<svg width="32" height="32" viewBox="0 0 32 32" xmlns="http://www.w3.org/2000/svg">
  <rect width="32" height="32" rx="4" fill="#f7f3e9"/>
  <rect x="6" y="4" width="20" height="24" rx="1" fill="#a67c00"/>
  <rect x="7" y="5" width="18" height="22" rx="0.5" fill="#fffdf7"/>
  <circle cx="9" cy="8" r="0.8" fill="#8b5a00"/>
  <circle cx="9" cy="12" r="0.8" fill="#8b5a00"/>
  <circle cx="9" cy="16" r="0.8" fill="#8b5a00"/>
  <circle cx="9" cy="20" r="0.8" fill="#8b5a00"/>
  <circle cx="9" cy="24" r="0.8" fill="#8b5a00"/>
  <line x1="11" y1="10" x2="23" y2="10" stroke="#d4c4a8" stroke-width="0.3"/>
  <line x1="11" y1="13" x2="23" y2="13" stroke="#d4c4a8" stroke-width="0.3"/>
  <line x1="11" y1="16" x2="23" y2="16" stroke="#d4c4a8" stroke-width="0.3"/>
  <line x1="11" y1="19" x2="23" y2="19" stroke="#d4c4a8" stroke-width="0.3"/>
  <line x1="11" y1="22" x2="23" y2="22" stroke="#d4c4a8" stroke-width="0.3"/>
  <rect x="23" y="4" width="1.5" height="12" fill="#6b5b3c"/>
  <polygon points="23,16 24.5,16 23.75,18" fill="#6b5b3c"/>
</svg>
